<svg width="24" height="24" viewBox="0 0 24 24" fill="none" xmlns="http://www.w3.org/2000/svg">
<path d="M12 0C5.375 0 0 5.375 0 12C0 18.6313 5.375 24 12 24C18.625 24 24 18.6313 24 12C24 5.375 18.625 0 12 0ZM19.6187 5.53125C20.9687 7.11875 21.825 9.13125 21.975 11.3375C19.8125 11.225 17.225 11.225 15.15 11.4187C14.8875 10.7562 14.6187 10.1062 14.325 9.48125C16.7187 8.44375 18.5625 7.08125 19.6187 5.53125ZM12 2C14.425 2 16.65 2.8625 18.3813 4.3C17.2938 5.675 15.5875 6.86875 13.4625 7.775C12.3 5.625 10.9625 3.775 9.53751 2.31875C10.3313 2.11875 11.15 2 12 2ZM7.47501 3.09375C8.91876 4.53125 10.275 6.3625 11.4625 8.50625C9.20624 9.19375 6.61875 9.5875 3.85625 9.5875C3.33125 9.5875 2.81875 9.56875 2.3125 9.5375C3.03125 6.71875 4.93751 4.38125 7.47501 3.09375ZM2.01875 11.525C2.5875 11.55 3.16249 11.5625 3.74374 11.5562C6.89374 11.5187 9.825 11.025 12.3438 10.2188C12.5813 10.7125 12.8063 11.2188 13.0188 11.7375C12.675 11.8188 12.3687 11.9062 12.125 12.0063C8.68125 13.45 5.96875 15.7812 4.5 18.6C2.95 16.8375 2 14.5312 2 12C2 11.8375 2.00625 11.6812 2.01875 11.525ZM12 22C9.6875 22 7.56249 21.2125 5.86874 19.8937C7.19999 17.2562 9.57501 15.075 12.5688 13.7188C12.85 13.5875 13.225 13.4812 13.6562 13.3875C14.0125 14.375 14.3313 15.4 14.6125 16.4625C15.0438 18.1187 15.35 19.7563 15.5375 21.3438C14.4375 21.7625 13.25 22 12 22ZM17.4062 20.4062C17.2188 18.8 16.9125 17.15 16.475 15.475C16.2625 14.6625 16.0188 13.875 15.7563 13.1062C17.7188 12.9437 20.0688 12.9688 21.9375 13.1062C21.6 16.175 19.875 18.8125 17.4062 20.4062Z" fill="#191919"/>
</svg>
