<svg width="24" height="24" viewBox="0 0 24 24" fill="none" xmlns="http://www.w3.org/2000/svg">
<path d="M17.4545 0H6.54545C2.94545 0 0 2.94545 0 6.54545V17.4545C0 21.0545 2.94545 24 6.54545 24H17.4545C21.0545 24 24 21.0545 24 17.4545V6.54545C24 2.94545 21.0545 0 17.4545 0ZM21.8182 17.4545C21.8182 19.8545 19.8545 21.8182 17.4545 21.8182H6.54545C4.14545 21.8182 2.18182 19.8545 2.18182 17.4545V6.54545C2.18182 4.14545 4.14545 2.18182 6.54545 2.18182H17.4545C19.8545 2.18182 21.8182 4.14545 21.8182 6.54545V17.4545ZM12.8727 6.54545C12.3273 6.43636 11.7818 6.43636 11.2364 6.54545C8.29091 6.98182 6.21818 9.81818 6.65454 12.7636C7.09091 15.4909 9.38182 17.4545 12 17.4545C12.2182 17.4545 12.5455 17.4545 12.7636 17.3455C14.1818 17.1273 15.4909 16.3636 16.3636 15.1636C17.2364 13.9636 17.5636 12.5455 17.3455 11.1273C17.1273 8.72727 15.2727 6.87273 12.8727 6.54545ZM14.7273 13.8545C14.1818 14.5091 13.4182 15.0545 12.5455 15.1636C10.8 15.3818 9.05454 14.1818 8.83636 12.4364C8.50909 10.6909 9.81818 8.94545 11.5636 8.72727C11.6727 8.72727 11.8909 8.72727 12 8.72727C12.1091 8.72727 12.3273 8.72727 12.4364 8.72727C13.8545 8.94545 14.9455 10.0364 15.1636 11.4545C15.3818 12.3273 15.1636 13.2 14.7273 13.8545ZM18.9818 5.56364C18.9818 5.67273 19.0909 5.78182 19.0909 6C19.0909 6.32727 18.9818 6.54545 18.7636 6.76364C18.5455 6.98182 18.2182 7.09091 18 7.09091C17.7818 7.09091 17.4545 6.98182 17.2364 6.76364C17.0182 6.54545 16.9091 6.21818 16.9091 6C16.9091 5.89091 16.9091 5.67273 17.0182 5.56364C17.0182 5.45455 17.1273 5.34545 17.2364 5.23636C17.6727 4.8 18.3273 4.8 18.7636 5.23636C18.8727 5.34545 18.9818 5.45455 18.9818 5.56364Z" fill="#191919"/>
</svg>
