<svg width="24" height="196" viewBox="0 0 24 196" fill="none" xmlns="http://www.w3.org/2000/svg">
<path d="M19.6193 196V193.935H4.40761L14.4591 187.095V186.987L4.38074 180.148H19.6193V178.029H0.80627L0.80627 180.174L11.0728 187.014L0.80627 193.854L0.80627 196H19.6193Z" fill="#191919"/>
<path d="M19.9149 168.931C19.9149 166.49 18.7861 164.881 17.523 163.915H19.6193V161.93H11.1265C9.35275 161.93 8.00896 162.413 7.06831 163.352C6.04703 164.371 5.53639 165.873 5.53639 167.831C5.53639 169.843 5.99328 171.345 6.69205 172.874L8.38522 172.257C7.79395 170.97 7.36394 169.682 7.36394 168.046C7.36394 165.444 8.65397 163.915 11.1534 163.915H11.6372C11.2878 165.149 11.0459 166.41 11.0459 168.18C11.0459 171.694 12.6047 174.108 15.5342 174.108H15.5879C18.4367 174.108 19.9149 171.506 19.9149 168.931ZM18.2755 168.529C18.2755 170.406 17.2542 172.016 15.5073 172.016H15.4535C13.7066 172.016 12.5778 170.567 12.5778 167.966C12.5778 166.276 12.8735 164.908 13.1691 163.888H14.5129C16.7167 163.888 18.2755 165.981 18.2755 168.529Z" fill="#191919"/>
<path d="M19.9149 151.708C19.9149 149.16 18.4905 147.524 16.8242 146.397H19.6193V144.332H0L0 146.397H8.38522C6.82643 147.47 5.42889 149.133 5.42889 151.708C5.42889 155.034 8.11646 158.333 12.6585 158.333H12.7122C17.2811 158.333 19.9149 155.034 19.9149 151.708ZM18.0605 151.333C18.0605 153.934 15.9642 156.214 12.6853 156.214H12.6316C9.27212 156.214 7.28331 154.015 7.28331 151.333C7.28331 148.758 9.43337 146.317 12.6316 146.317H12.6853C15.8835 146.317 18.0605 148.758 18.0605 151.333Z" fill="#191919"/>
<path d="M19.9418 133.655C19.9418 131.026 18.8936 129.336 17.3348 127.941L16.1792 129.229C17.3617 130.355 18.1411 131.696 18.1411 133.601C18.1411 136.069 16.4479 138.188 13.4378 138.483V127.485C13.196 127.458 13.0347 127.458 12.766 127.458C8.70773 127.458 5.42889 129.819 5.42889 133.923C5.42889 137.758 8.65397 140.575 12.6585 140.575H12.7122C17.0123 140.575 19.9418 137.463 19.9418 133.655ZM11.9059 138.483C9.19149 138.214 7.17581 136.391 7.17581 133.976C7.17581 131.214 9.37962 129.765 11.9059 129.551V138.483Z" fill="#191919"/>
<path d="M19.6193 123.494V115.152C19.6193 111.048 17.7111 108.339 14.486 108.339H14.4323C11.8522 108.339 10.5622 110.136 9.89026 112.363C9.24524 110.887 7.98208 109.385 5.53639 109.385H5.48264C4.27324 109.385 3.27883 109.814 2.47256 110.592C1.42441 111.665 0.80627 113.355 0.80627 115.501L0.80627 123.494H19.6193ZM5.83203 111.531C8.03583 111.531 9.19149 113.301 9.19149 115.85V121.402H2.71445L2.71445 115.689C2.71445 113.006 3.92385 111.531 5.77828 111.531H5.83203ZM14.2979 110.485H14.3516C16.4479 110.485 17.7111 112.255 17.7111 115.099V121.402H11.0728V115.474C11.0728 112.202 12.2553 110.485 14.2979 110.485Z" fill="#191919"/>
<path d="M17.308 98.8193L5.72452 103.862V106.142L19.5655 99.8385C21.5274 100.67 22.1725 101.448 22.1725 102.682C22.1725 103.567 22.0112 104.184 21.6618 104.854L23.3012 105.552C23.7581 104.613 24 103.755 24 102.601C24 100.509 22.9518 99.168 20.0761 97.9877L5.72452 92.1672V94.3666L17.308 98.8193Z" fill="#191919"/>
<path d="M19.888 82.1133C19.888 78.385 17.7917 75.7027 14.5666 75.7027H14.5129C11.6372 75.7027 10.1053 77.6339 9.19149 81.8183C8.30459 85.9491 7.31019 86.9147 5.53639 86.9147H5.48264C3.78947 86.9147 2.44569 85.3589 2.44569 82.918C2.44569 80.9868 3.06383 79.2433 4.48824 77.4998L2.84882 76.2659C1.31691 78.1704 0.537513 80.1285 0.537513 82.8644C0.537513 86.4319 2.71445 89.0337 5.67077 89.0337H5.72452C8.81523 89.0337 10.2128 87.0488 11.1534 82.7303C11.9866 78.7873 12.981 77.8485 14.7279 77.8485H14.7816C16.6361 77.8485 17.9798 79.5115 17.9798 82.0329C17.9798 84.6347 17.0929 86.5123 15.3191 88.4704L16.8779 89.7847C18.8936 87.5316 19.888 85.0907 19.888 82.1133Z" fill="#191919"/>
<path d="M19.8611 67.2329C19.8611 66.2404 19.6461 65.4626 19.2699 64.7383H17.4961C17.8455 65.4626 17.9798 66.0527 17.9798 66.7501C17.9798 68.1449 17.3617 69.0837 15.6685 69.0837H7.55207V64.6847H5.72452V69.0837H1.53191L1.53191 71.149H5.72452L5.72452 73.0803H7.55207L7.55207 71.149H15.9373C18.7592 71.149 19.8611 69.4592 19.8611 67.2329Z" fill="#191919"/>
<path d="M19.9418 55.3597C19.9418 52.7311 18.8936 51.0412 17.3348 49.6464L16.1792 50.9339C17.3617 52.0605 18.1411 53.4016 18.1411 55.3061C18.1411 57.7738 16.4479 59.8928 13.4378 60.1879V49.1904C13.196 49.1636 13.0347 49.1636 12.766 49.1636C8.70773 49.1636 5.42889 51.524 5.42889 55.628C5.42889 59.4637 8.65397 62.2801 12.6585 62.2801H12.7122C17.0123 62.2801 19.9418 59.1686 19.9418 55.3597ZM11.9059 60.1879C9.19149 59.9196 7.17581 58.0957 7.17581 55.6816C7.17581 52.9188 9.37962 51.4704 11.9059 51.2558V60.1879Z" fill="#191919"/>
<path d="M19.9149 41.4172C19.9149 38.9763 18.7861 37.3669 17.523 36.4013H19.6193V34.4164H11.1265C9.35275 34.4164 8.00896 34.8992 7.06831 35.838C6.04703 36.8573 5.53639 38.3594 5.53639 40.3175C5.53639 42.3292 5.99328 43.8313 6.69205 45.3602L8.38522 44.7433C7.79395 43.4558 7.36394 42.1683 7.36394 40.5321C7.36394 37.9302 8.65397 36.4013 11.1534 36.4013H11.6372C11.2878 37.6352 11.0459 38.8958 11.0459 40.6662C11.0459 44.18 12.6047 46.5941 15.5342 46.5941H15.5879C18.4367 46.5941 19.9149 43.9922 19.9149 41.4172ZM18.2755 41.0149C18.2755 42.8925 17.2542 44.5019 15.5073 44.5019H15.4535C13.7066 44.5019 12.5778 43.0534 12.5778 40.4516C12.5778 38.7617 12.8735 37.3938 13.1691 36.3745H14.5129C16.7167 36.3745 18.2755 38.4667 18.2755 41.0149Z" fill="#191919"/>
<path d="M19.6193 29.827V27.7616H0L0 29.827H19.6193Z" fill="#191919"/>
<path d="M19.8611 18.3281C19.8611 17.3356 19.6461 16.5578 19.2699 15.8335H17.4961C17.8455 16.5578 17.9798 17.1479 17.9798 17.8453C17.9798 19.2401 17.3617 20.1789 15.6685 20.1789H7.55207V15.7799H5.72452V20.1789H1.53191V22.2442H5.72452V24.1755H7.55207V22.2442H15.9373C18.7592 22.2442 19.8611 20.5544 19.8611 18.3281Z" fill="#191919"/>
<path d="M19.6193 12.124V10.0586H11.6641C9.05711 10.0586 7.31019 8.28833 7.31019 5.90108C7.31019 3.46019 8.92273 2.06538 11.5028 2.06538H19.6193V0H10.9922C7.68645 0 5.42889 1.95808 5.42889 5.31096C5.42889 7.69821 6.6383 9.14664 8.14334 10.0586H0L0 12.124H19.6193Z" fill="#191919"/>
</svg>
