<svg width="234" height="30" viewBox="0 0 234 30" fill="none" xmlns="http://www.w3.org/2000/svg">
<path d="M0.167969 23.9999H2.63197V5.88789L10.792 17.8559H10.92L19.08 5.85589V23.9999H21.608V1.59989H19.048L10.888 13.8239L2.72797 1.59989H0.167969V23.9999Z" fill="#191919"/>
<path d="M32.4612 24.3519C35.3732 24.3519 37.2932 23.0079 38.4452 21.5039V23.9999H40.8132V13.8879C40.8132 11.7759 40.2372 10.1759 39.1172 9.05589C37.9012 7.83989 36.1092 7.23189 33.7732 7.23189C31.3732 7.23189 29.5812 7.77589 27.7572 8.60789L28.4932 10.6239C30.0292 9.91989 31.5652 9.40789 33.5172 9.40789C36.6212 9.40789 38.4452 10.9439 38.4452 13.9199V14.4959C36.9732 14.0799 35.4692 13.7919 33.3572 13.7919C29.1652 13.7919 26.2852 15.6479 26.2852 19.1359V19.1999C26.2852 22.5919 29.3892 24.3519 32.4612 24.3519ZM32.9412 22.3999C30.7012 22.3999 28.7812 21.1839 28.7812 19.1039V19.0399C28.7812 16.9599 30.5092 15.6159 33.6132 15.6159C35.6292 15.6159 37.2612 15.9679 38.4772 16.3199V17.9199C38.4772 20.5439 35.9812 22.3999 32.9412 22.3999Z" fill="#191919"/>
<path d="M53.0085 24.3519C56.0485 24.3519 58.0005 22.6559 59.3445 20.6719V23.9999H61.8085V0.639893H59.3445V10.6239C58.0645 8.76789 56.0805 7.10389 53.0085 7.10389C49.0405 7.10389 45.1045 10.3039 45.1045 15.7119V15.7759C45.1045 21.2159 49.0405 24.3519 53.0085 24.3519ZM53.4565 22.1439C50.3525 22.1439 47.6325 19.6479 47.6325 15.7439V15.6799C47.6325 11.6799 50.2565 9.31189 53.4565 9.31189C56.5285 9.31189 59.4405 11.8719 59.4405 15.6799V15.7439C59.4405 19.5519 56.5285 22.1439 53.4565 22.1439Z" fill="#191919"/>
<path d="M74.5465 24.3839C77.6825 24.3839 79.6985 23.1359 81.3625 21.2799L79.8265 19.9039C78.4825 21.3119 76.8825 22.2399 74.6105 22.2399C71.6665 22.2399 69.1385 20.2239 68.7865 16.6399H81.9065C81.9385 16.3519 81.9385 16.1599 81.9385 15.8399C81.9385 11.0079 79.1225 7.10389 74.2265 7.10389C69.6505 7.10389 66.2905 10.9439 66.2905 15.7119V15.7759C66.2905 20.8959 70.0025 24.3839 74.5465 24.3839ZM68.7865 14.8159C69.1065 11.5839 71.2825 9.18389 74.1625 9.18389C77.4585 9.18389 79.1865 11.8079 79.4425 14.8159H68.7865Z" fill="#191919"/>
<path d="M86.668 23.9999H96.62C101.516 23.9999 104.748 21.7279 104.748 17.8879V17.8239C104.748 14.7519 102.604 13.2159 99.948 12.4159C101.708 11.6479 103.5 10.1439 103.5 7.23189V7.16789C103.5 5.72789 102.988 4.54389 102.06 3.58389C100.78 2.33589 98.764 1.59989 96.204 1.59989H86.668V23.9999ZM100.94 7.58389C100.94 10.2079 98.828 11.5839 95.788 11.5839H89.164V3.87189H95.98C99.18 3.87189 100.94 5.31189 100.94 7.51989V7.58389ZM102.188 17.6639V17.7279C102.188 20.2239 100.076 21.7279 96.684 21.7279H89.164V13.8239H96.236C100.14 13.8239 102.188 15.2319 102.188 17.6639Z" fill="#191919"/>
<path d="M116.105 21.2479L110.089 7.45589H107.369L114.889 23.9359C113.897 26.2719 112.969 27.0399 111.497 27.0399C110.441 27.0399 109.705 26.8479 108.905 26.4319L108.073 28.3839C109.193 28.9279 110.217 29.2159 111.593 29.2159C114.089 29.2159 115.689 27.9679 117.097 24.5439L124.041 7.45589H121.417L116.105 21.2479Z" fill="#191919"/>
<path d="M136.035 24.3199C140.483 24.3199 143.683 21.8239 143.683 17.9839V17.9199C143.683 14.4959 141.379 12.6719 136.387 11.5839C131.459 10.5279 130.307 9.34389 130.307 7.23189V7.16789C130.307 5.15189 132.163 3.55189 135.075 3.55189C137.379 3.55189 139.459 4.28789 141.539 5.98389L143.011 4.03189C140.739 2.20789 138.403 1.27989 135.139 1.27989C130.883 1.27989 127.779 3.87189 127.779 7.39189V7.45589C127.779 11.1359 130.147 12.7999 135.299 13.9199C140.003 14.9119 141.123 16.0959 141.123 18.1759V18.2399C141.123 20.4479 139.139 22.0479 136.131 22.0479C133.027 22.0479 130.787 20.9919 128.451 18.8799L126.883 20.7359C129.571 23.1359 132.483 24.3199 136.035 24.3199Z" fill="#191919"/>
<path d="M153.788 24.2879C154.972 24.2879 155.9 24.0319 156.764 23.5839V21.4719C155.9 21.8879 155.196 22.0479 154.364 22.0479C152.7 22.0479 151.58 21.3119 151.58 19.2959V9.63189H156.828V7.45589H151.58V2.46389H149.116V7.45589H146.812V9.63189H149.116V19.6159C149.116 22.9759 151.132 24.2879 153.788 24.2879Z" fill="#191919"/>
<path d="M167.953 24.3839C171.089 24.3839 173.105 23.1359 174.769 21.2799L173.233 19.9039C171.889 21.3119 170.289 22.2399 168.017 22.2399C165.073 22.2399 162.545 20.2239 162.193 16.6399H175.313C175.345 16.3519 175.345 16.1599 175.345 15.8399C175.345 11.0079 172.529 7.10389 167.633 7.10389C163.057 7.10389 159.697 10.9439 159.697 15.7119V15.7759C159.697 20.8959 163.409 24.3839 167.953 24.3839ZM162.193 14.8159C162.513 11.5839 164.689 9.18389 167.569 9.18389C170.865 9.18389 172.593 11.8079 172.849 14.8159H162.193Z" fill="#191919"/>
<path d="M184.586 24.3519C187.498 24.3519 189.418 23.0079 190.57 21.5039V23.9999H192.938V13.8879C192.938 11.7759 192.362 10.1759 191.242 9.05589C190.026 7.83989 188.234 7.23189 185.898 7.23189C183.498 7.23189 181.706 7.77589 179.882 8.60789L180.618 10.6239C182.154 9.91989 183.69 9.40789 185.642 9.40789C188.746 9.40789 190.57 10.9439 190.57 13.9199V14.4959C189.098 14.0799 187.594 13.7919 185.482 13.7919C181.29 13.7919 178.41 15.6479 178.41 19.1359V19.1999C178.41 22.5919 181.514 24.3519 184.586 24.3519ZM185.066 22.3999C182.826 22.3999 180.906 21.1839 180.906 19.1039V19.0399C180.906 16.9599 182.634 15.6159 185.738 15.6159C187.754 15.6159 189.386 15.9679 190.602 16.3199V17.9199C190.602 20.5439 188.106 22.3999 185.066 22.3999Z" fill="#191919"/>
<path d="M198.413 23.9999H200.877V0.639893H198.413V23.9999Z" fill="#191919"/>
<path d="M212.132 24.2879C213.316 24.2879 214.244 24.0319 215.108 23.5839V21.4719C214.244 21.8879 213.54 22.0479 212.708 22.0479C211.044 22.0479 209.924 21.3119 209.924 19.2959V9.63189H215.172V7.45589H209.924V2.46389H207.46V7.45589H205.156V9.63189H207.46V19.6159C207.46 22.9759 209.476 24.2879 212.132 24.2879Z" fill="#191919"/>
<path d="M219.533 23.9999H221.997V14.5279C221.997 11.4239 224.109 9.34389 226.957 9.34389C229.869 9.34389 231.533 11.2639 231.533 14.3359V23.9999H233.997V13.7279C233.997 9.79189 231.661 7.10389 227.661 7.10389C224.813 7.10389 223.085 8.54389 221.997 10.3359V0.639893H219.533V23.9999Z" fill="#191919"/>
</svg>
